<?xml version="1.0" encoding="UTF-8" standalone="no"?>
<!DOCTYPE svg PUBLIC "-//W3C//DTD SVG 1.1//EN"
 "http://www.w3.org/Graphics/SVG/1.1/DTD/svg11.dtd">
<!-- Generated by graphviz version 2.47.0 (20210316.0004)
 -->
<!-- Title: dependencies Pages: 1 -->
<svg width="3113pt" height="382pt"
 viewBox="0.00 0.00 3113.00 382.00" xmlns="http://www.w3.org/2000/svg" xmlns:xlink="http://www.w3.org/1999/xlink">
<g id="graph0" class="graph" transform="scale(1 1) rotate(0) translate(4 378)">
<title>dependencies</title>
<polygon fill="white" stroke="transparent" points="-4,4 -4,-378 3109,-378 3109,4 -4,4"/>
<text text-anchor="start" x="1531.51" y="-42.4" font-family="Times-12" font-weight="bold" font-size="14.00">Legend</text>
<polygon fill="#ffffb3" stroke="transparent" points="1318.5,-10 1318.5,-30 1338.5,-30 1338.5,-10 1318.5,-10"/>
<text text-anchor="start" x="1342.13" y="-15.4" font-family="Times-12" font-size="14.00"> &#160;Declarations</text>
<polygon fill="#8dd3c7" stroke="transparent" points="1431.5,-10 1431.5,-30 1451.5,-30 1451.5,-10 1431.5,-10"/>
<text text-anchor="start" x="1455.23" y="-15.4" font-family="Times-12" font-size="14.00"> &#160;Module</text>
<polygon fill="#80b1d3" stroke="transparent" points="1517.5,-10 1517.5,-30 1537.5,-30 1537.5,-10 1517.5,-10"/>
<text text-anchor="start" x="1541.28" y="-15.4" font-family="Times-12" font-size="14.00"> &#160;Bootstrap</text>
<polygon fill="#fdb462" stroke="transparent" points="1614.5,-10 1614.5,-30 1634.5,-30 1634.5,-10 1614.5,-10"/>
<text text-anchor="start" x="1638.17" y="-15.4" font-family="Times-12" font-size="14.00"> &#160;Providers</text>
<polygon fill="#fb8072" stroke="transparent" points="1710.5,-10 1710.5,-30 1730.5,-30 1730.5,-10 1710.5,-10"/>
<text text-anchor="start" x="1734.23" y="-15.4" font-family="Times-12" font-size="14.00"> &#160;Exports</text>
<g id="clust1" class="cluster">
<title>cluster_AdminModule</title>
<polygon fill="none" stroke="black" stroke-dasharray="1,5" points="2444,-146 2444,-282 2983,-282 2983,-146 2444,-146"/>
</g>
<g id="clust3" class="cluster">
<title>cluster_AdminModule_imports</title>
<polygon fill="none" stroke="black" points="2610,-154 2610,-206 2975,-206 2975,-154 2610,-154"/>
</g>
<g id="clust6" class="cluster">
<title>cluster_AdminModule_providers</title>
<polygon fill="none" stroke="black" points="2452,-154 2452,-206 2602,-206 2602,-154 2452,-154"/>
</g>
<g id="clust7" class="cluster">
<title>cluster_AppModule</title>
<polygon fill="none" stroke="black" stroke-dasharray="1,5" points="374,-70 374,-366 1463,-366 1463,-70 374,-70"/>
</g>
<g id="clust9" class="cluster">
<title>cluster_AppModule_imports</title>
<polygon fill="none" stroke="black" points="414,-154 414,-358 1363,-358 1363,-154 414,-154"/>
</g>
<g id="clust12" class="cluster">
<title>cluster_AppModule_providers</title>
<polygon fill="none" stroke="black" points="834,-78 834,-130 1455,-130 1455,-78 834,-78"/>
</g>
<g id="clust13" class="cluster">
<title>cluster_AuthModule</title>
<polygon fill="none" stroke="black" stroke-dasharray="1,5" points="1611,-222 1611,-290 1757,-290 1757,-222 1611,-222"/>
</g>
<g id="clust18" class="cluster">
<title>cluster_AuthModule_providers</title>
<polygon fill="none" stroke="black" points="1619,-230 1619,-282 1749,-282 1749,-230 1619,-230"/>
</g>
<g id="clust19" class="cluster">
<title>cluster_BidModule</title>
<polygon fill="none" stroke="black" stroke-dasharray="1,5" points="2561,-70 2561,-138 2701,-138 2701,-70 2561,-70"/>
</g>
<g id="clust24" class="cluster">
<title>cluster_BidModule_providers</title>
<polygon fill="none" stroke="black" points="2569,-78 2569,-130 2693,-130 2693,-78 2569,-78"/>
</g>
<g id="clust25" class="cluster">
<title>cluster_DashboardModule</title>
<polygon fill="none" stroke="black" stroke-dasharray="1,5" points="170,-146 170,-214 366,-214 366,-146 170,-146"/>
</g>
<g id="clust30" class="cluster">
<title>cluster_DashboardModule_providers</title>
<polygon fill="none" stroke="black" points="178,-154 178,-206 358,-206 358,-154 178,-154"/>
</g>
<g id="clust31" class="cluster">
<title>cluster_DrModule</title>
<polygon fill="none" stroke="black" stroke-dasharray="1,5" points="1471,-70 1471,-138 1603,-138 1603,-70 1471,-70"/>
</g>
<g id="clust36" class="cluster">
<title>cluster_DrModule_providers</title>
<polygon fill="none" stroke="black" points="1479,-78 1479,-130 1595,-130 1595,-78 1479,-78"/>
</g>
<g id="clust37" class="cluster">
<title>cluster_HistoryModule</title>
<polygon fill="none" stroke="black" stroke-dasharray="1,5" points="1611,-70 1611,-138 1781,-138 1781,-70 1611,-70"/>
</g>
<g id="clust42" class="cluster">
<title>cluster_HistoryModule_providers</title>
<polygon fill="none" stroke="black" points="1619,-78 1619,-130 1773,-130 1773,-78 1619,-78"/>
</g>
<g id="clust43" class="cluster">
<title>cluster_InquiryModule</title>
<polygon fill="none" stroke="black" stroke-dasharray="1,5" points="2709,-70 2709,-138 2877,-138 2877,-70 2709,-70"/>
</g>
<g id="clust48" class="cluster">
<title>cluster_InquiryModule_providers</title>
<polygon fill="none" stroke="black" points="2717,-78 2717,-130 2869,-130 2869,-78 2717,-78"/>
</g>
<g id="clust55" class="cluster">
<title>cluster_ManagementModule</title>
<polygon fill="none" stroke="black" stroke-dasharray="1,5" points="2885,-70 2885,-138 3097,-138 3097,-70 2885,-70"/>
</g>
<g id="clust60" class="cluster">
<title>cluster_ManagementModule_providers</title>
<polygon fill="none" stroke="black" points="2893,-78 2893,-130 3089,-130 3089,-78 2893,-78"/>
</g>
<g id="clust61" class="cluster">
<title>cluster_MonitoringModule</title>
<polygon fill="none" stroke="black" stroke-dasharray="1,5" points="1789,-70 1789,-138 1989,-138 1989,-70 1789,-70"/>
</g>
<g id="clust66" class="cluster">
<title>cluster_MonitoringModule_providers</title>
<polygon fill="none" stroke="black" points="1797,-78 1797,-130 1981,-130 1981,-78 1797,-78"/>
</g>
<g id="clust67" class="cluster">
<title>cluster_PowerplannerModule</title>
<polygon fill="none" stroke="black" stroke-dasharray="1,5" points="1997,-70 1997,-138 2217,-138 2217,-70 1997,-70"/>
</g>
<g id="clust72" class="cluster">
<title>cluster_PowerplannerModule_providers</title>
<polygon fill="none" stroke="black" points="2005,-78 2005,-130 2209,-130 2209,-78 2005,-78"/>
</g>
<g id="clust73" class="cluster">
<title>cluster_PrismaModule</title>
<polygon fill="none" stroke="black" stroke-dasharray="1,5" points="1471,-222 1471,-290 1603,-290 1603,-222 1471,-222"/>
</g>
<g id="clust76" class="cluster">
<title>cluster_PrismaModule_exports</title>
<polygon fill="none" stroke="black" points="1479,-230 1479,-282 1595,-282 1595,-230 1479,-230"/>
</g>
<g id="clust79" class="cluster">
<title>cluster_ProfileModule</title>
<polygon fill="none" stroke="black" stroke-dasharray="1,5" points="2225,-70 2225,-138 2389,-138 2389,-70 2225,-70"/>
</g>
<g id="clust84" class="cluster">
<title>cluster_ProfileModule_providers</title>
<polygon fill="none" stroke="black" points="2233,-78 2233,-130 2381,-130 2381,-78 2233,-78"/>
</g>
<g id="clust85" class="cluster">
<title>cluster_RedisModule</title>
<polygon fill="none" stroke="black" stroke-dasharray="1,5" points="2397,-70 2397,-138 2553,-138 2553,-70 2397,-70"/>
</g>
<g id="clust90" class="cluster">
<title>cluster_RedisModule_providers</title>
<polygon fill="none" stroke="black" points="2405,-78 2405,-130 2545,-130 2545,-78 2405,-78"/>
</g>
<g id="clust91" class="cluster">
<title>cluster_UserModule</title>
<polygon fill="none" stroke="black" stroke-dasharray="1,5" points="8,-298 8,-366 366,-366 366,-298 8,-298"/>
</g>
<g id="clust94" class="cluster">
<title>cluster_UserModule_exports</title>
<polygon fill="none" stroke="black" points="156,-306 156,-358 358,-358 358,-306 156,-306"/>
</g>
<g id="clust96" class="cluster">
<title>cluster_UserModule_providers</title>
<polygon fill="none" stroke="black" points="16,-306 16,-358 148,-358 148,-306 16,-306"/>
</g>
<!-- BidModule -->
<g id="node1" class="node">
<title>BidModule</title>
<polygon fill="#8dd3c7" stroke="black" points="2697.78,-198 2694.78,-202 2673.78,-202 2670.78,-198 2618.22,-198 2618.22,-162 2697.78,-162 2697.78,-198"/>
<text text-anchor="middle" x="2658" y="-175.8" font-family="Times,serif" font-size="14.00">BidModule</text>
</g>
<!-- AdminModule -->
<g id="node4" class="node">
<title>AdminModule</title>
<polygon fill="#8dd3c7" stroke="black" points="2707.44,-274 2704.44,-278 2683.44,-278 2680.44,-274 2608.56,-274 2608.56,-238 2707.44,-238 2707.44,-274"/>
<text text-anchor="middle" x="2658" y="-251.8" font-family="Times,serif" font-size="14.00">AdminModule</text>
</g>
<!-- BidModule&#45;&gt;AdminModule -->
<g id="edge1" class="edge">
<title>BidModule&#45;&gt;AdminModule</title>
<path fill="none" stroke="black" d="M2658,-198.01C2658,-198.01 2658,-227.85 2658,-227.85"/>
<polygon fill="black" stroke="black" points="2654.5,-227.85 2658,-237.85 2661.5,-227.85 2654.5,-227.85"/>
</g>
<!-- InquiryModule -->
<g id="node2" class="node">
<title>InquiryModule</title>
<polygon fill="#8dd3c7" stroke="black" points="2816.26,-198 2813.26,-202 2792.26,-202 2789.26,-198 2715.74,-198 2715.74,-162 2816.26,-162 2816.26,-198"/>
<text text-anchor="middle" x="2766" y="-175.8" font-family="Times,serif" font-size="14.00">InquiryModule</text>
</g>
<!-- InquiryModule&#45;&gt;AdminModule -->
<g id="edge2" class="edge">
<title>InquiryModule&#45;&gt;AdminModule</title>
<path fill="none" stroke="black" d="M2715.7,-180C2708,-180 2702.55,-180 2702.55,-180 2702.55,-180 2702.55,-227.99 2702.55,-227.99"/>
<polygon fill="black" stroke="black" points="2699.05,-227.99 2702.55,-237.99 2706.05,-227.99 2699.05,-227.99"/>
</g>
<!-- ManagementModule -->
<g id="node3" class="node">
<title>ManagementModule</title>
<polygon fill="#8dd3c7" stroke="black" points="2967.13,-198 2964.13,-202 2943.13,-202 2940.13,-198 2834.87,-198 2834.87,-162 2967.13,-162 2967.13,-198"/>
<text text-anchor="middle" x="2901" y="-175.8" font-family="Times,serif" font-size="14.00">ManagementModule</text>
</g>
<!-- ManagementModule&#45;&gt;AdminModule -->
<g id="edge3" class="edge">
<title>ManagementModule&#45;&gt;AdminModule</title>
<path fill="none" stroke="black" d="M2901,-198.01C2901,-220.49 2901,-256 2901,-256 2901,-256 2717.47,-256 2717.47,-256"/>
<polygon fill="black" stroke="black" points="2717.47,-252.5 2707.47,-256 2717.47,-259.5 2717.47,-252.5"/>
</g>
<!-- AppModule -->
<g id="node17" class="node">
<title>AppModule</title>
<polygon fill="#8dd3c7" stroke="black" points="1454.66,-350 1451.66,-354 1430.66,-354 1427.66,-350 1371.34,-350 1371.34,-314 1454.66,-314 1454.66,-350"/>
<text text-anchor="middle" x="1413" y="-327.8" font-family="Times,serif" font-size="14.00">AppModule</text>
</g>
<!-- AdminModule&#45;&gt;AppModule -->
<g id="edge5" class="edge">
<title>AdminModule&#45;&gt;AppModule</title>
<path fill="none" stroke="black" d="M2658,-274.01C2658,-296.49 2658,-332 2658,-332 2658,-332 1464.78,-332 1464.78,-332"/>
<polygon fill="black" stroke="black" points="1464.78,-328.5 1454.78,-332 1464.78,-335.5 1464.78,-328.5"/>
</g>
<!-- AdminService -->
<g id="node5" class="node">
<title>AdminService</title>
<ellipse fill="#fdb462" stroke="black" cx="2527" cy="-180" rx="66.63" ry="18"/>
<text text-anchor="middle" x="2527" y="-175.8" font-family="Times,serif" font-size="14.00">AdminService</text>
</g>
<!-- AdminService&#45;&gt;AdminModule -->
<g id="edge4" class="edge">
<title>AdminService&#45;&gt;AdminModule</title>
<path fill="none" stroke="black" d="M2593.83,-180C2605.21,-180 2613.45,-180 2613.45,-180 2613.45,-180 2613.45,-227.99 2613.45,-227.99"/>
<polygon fill="black" stroke="black" points="2609.95,-227.99 2613.45,-237.99 2616.95,-227.99 2609.95,-227.99"/>
</g>
<!-- AuthModule -->
<g id="node6" class="node">
<title>AuthModule</title>
<polygon fill="#8dd3c7" stroke="black" points="708.55,-350 705.55,-354 684.55,-354 681.55,-350 621.45,-350 621.45,-314 708.55,-314 708.55,-350"/>
<text text-anchor="middle" x="665" y="-327.8" font-family="Times,serif" font-size="14.00">AuthModule</text>
</g>
<!-- AuthModule&#45;&gt;AppModule -->
<g id="edge6" class="edge">
<title>AuthModule&#45;&gt;AppModule</title>
<path fill="none" stroke="black" d="M708.72,-347C708.72,-347 1361.33,-347 1361.33,-347"/>
<polygon fill="black" stroke="black" points="1361.33,-350.5 1371.33,-347 1361.33,-343.5 1361.33,-350.5"/>
</g>
<!-- DashboardModule -->
<g id="node7" class="node">
<title>DashboardModule</title>
<polygon fill="#8dd3c7" stroke="black" points="646.19,-274 643.19,-278 622.19,-278 619.19,-274 525.81,-274 525.81,-238 646.19,-238 646.19,-274"/>
<text text-anchor="middle" x="586" y="-251.8" font-family="Times,serif" font-size="14.00">DashboardModule</text>
</g>
<!-- DashboardModule&#45;&gt;AppModule -->
<g id="edge7" class="edge">
<title>DashboardModule&#45;&gt;AppModule</title>
<path fill="none" stroke="black" d="M646.31,-256C833.59,-256 1392.73,-256 1392.73,-256 1392.73,-256 1392.73,-303.99 1392.73,-303.99"/>
<polygon fill="black" stroke="black" points="1389.23,-303.99 1392.73,-313.99 1396.23,-303.99 1389.23,-303.99"/>
</g>
<!-- DrModule -->
<g id="node8" class="node">
<title>DrModule</title>
<polygon fill="#8dd3c7" stroke="black" points="612.32,-198 609.32,-202 588.32,-202 585.32,-198 537.68,-198 537.68,-162 612.32,-162 612.32,-198"/>
<text text-anchor="middle" x="575" y="-175.8" font-family="Times,serif" font-size="14.00">DrModule</text>
</g>
<!-- DrModule&#45;&gt;AppModule -->
<g id="edge8" class="edge">
<title>DrModule&#45;&gt;AppModule</title>
<path fill="none" stroke="black" d="M575,-198.24C575,-205.43 575,-212 575,-212 575,-212 1414.29,-212 1414.29,-212 1414.29,-212 1414.29,-303.77 1414.29,-303.77"/>
<polygon fill="black" stroke="black" points="1410.79,-303.77 1414.29,-313.77 1417.79,-303.77 1410.79,-303.77"/>
</g>
<!-- HistoryModule -->
<g id="node9" class="node">
<title>HistoryModule</title>
<polygon fill="#8dd3c7" stroke="black" points="731.54,-198 728.54,-202 707.54,-202 704.54,-198 630.46,-198 630.46,-162 731.54,-162 731.54,-198"/>
<text text-anchor="middle" x="681" y="-175.8" font-family="Times,serif" font-size="14.00">HistoryModule</text>
</g>
<!-- HistoryModule&#45;&gt;AppModule -->
<g id="edge9" class="edge">
<title>HistoryModule&#45;&gt;AppModule</title>
<path fill="none" stroke="black" d="M720.27,-198.18C720.27,-240.88 720.27,-344 720.27,-344 720.27,-344 1361.23,-344 1361.23,-344"/>
<polygon fill="black" stroke="black" points="1361.23,-347.5 1371.23,-344 1361.23,-340.5 1361.23,-347.5"/>
</g>
<!-- KpxModule -->
<g id="node10" class="node">
<title>KpxModule</title>
<polygon fill="#8dd3c7" stroke="black" points="833.66,-198 830.66,-202 809.66,-202 806.66,-198 750.34,-198 750.34,-162 833.66,-162 833.66,-198"/>
<text text-anchor="middle" x="792" y="-175.8" font-family="Times,serif" font-size="14.00">KpxModule</text>
</g>
<!-- KpxModule&#45;&gt;AppModule -->
<g id="edge10" class="edge">
<title>KpxModule&#45;&gt;AppModule</title>
<path fill="none" stroke="black" d="M792,-198.16C792,-240.26 792,-341 792,-341 792,-341 1361.29,-341 1361.29,-341"/>
<polygon fill="black" stroke="black" points="1361.29,-344.5 1371.29,-341 1361.29,-337.5 1361.29,-344.5"/>
</g>
<!-- MonitoringModule -->
<g id="node11" class="node">
<title>MonitoringModule</title>
<polygon fill="#8dd3c7" stroke="black" points="974.83,-198 971.83,-202 950.83,-202 947.83,-198 851.17,-198 851.17,-162 974.83,-162 974.83,-198"/>
<text text-anchor="middle" x="913" y="-175.8" font-family="Times,serif" font-size="14.00">MonitoringModule</text>
</g>
<!-- MonitoringModule&#45;&gt;AppModule -->
<g id="edge11" class="edge">
<title>MonitoringModule&#45;&gt;AppModule</title>
<path fill="none" stroke="black" d="M913,-198.08C913,-238.97 913,-335 913,-335 913,-335 1361.23,-335 1361.23,-335"/>
<polygon fill="black" stroke="black" points="1361.23,-338.5 1371.23,-335 1361.23,-331.5 1361.23,-338.5"/>
</g>
<!-- PowerplannerModule -->
<g id="node12" class="node">
<title>PowerplannerModule</title>
<polygon fill="#8dd3c7" stroke="black" points="1129.79,-198 1126.79,-202 1105.79,-202 1102.79,-198 992.21,-198 992.21,-162 1129.79,-162 1129.79,-198"/>
<text text-anchor="middle" x="1061" y="-175.8" font-family="Times,serif" font-size="14.00">PowerplannerModule</text>
</g>
<!-- PowerplannerModule&#45;&gt;AppModule -->
<g id="edge12" class="edge">
<title>PowerplannerModule&#45;&gt;AppModule</title>
<path fill="none" stroke="black" d="M1061,-198.27C1061,-238.06 1061,-329 1061,-329 1061,-329 1361.24,-329 1361.24,-329"/>
<polygon fill="black" stroke="black" points="1361.24,-332.5 1371.24,-329 1361.24,-325.5 1361.24,-332.5"/>
</g>
<!-- PrismaModule -->
<g id="node13" class="node">
<title>PrismaModule</title>
<polygon fill="#8dd3c7" stroke="black" points="520.43,-198 517.43,-202 496.43,-202 493.43,-198 421.57,-198 421.57,-162 520.43,-162 520.43,-198"/>
<text text-anchor="middle" x="471" y="-175.8" font-family="Times,serif" font-size="14.00">PrismaModule</text>
</g>
<!-- PrismaModule&#45;&gt;AuthModule -->
<g id="edge22" class="edge">
<title>PrismaModule&#45;&gt;AuthModule</title>
<path fill="none" stroke="black" d="M517.16,-198.2C517.16,-237.33 517.16,-326 517.16,-326 517.16,-326 611.44,-326 611.44,-326"/>
<polygon fill="black" stroke="black" points="611.44,-329.5 621.44,-326 611.44,-322.5 611.44,-329.5"/>
</g>
<!-- PrismaModule&#45;&gt;DashboardModule -->
<g id="edge27" class="edge">
<title>PrismaModule&#45;&gt;DashboardModule</title>
<path fill="none" stroke="black" d="M520.22,-180C528.18,-180 533.86,-180 533.86,-180 533.86,-180 533.86,-227.99 533.86,-227.99"/>
<polygon fill="black" stroke="black" points="530.36,-227.99 533.86,-237.99 537.36,-227.99 530.36,-227.99"/>
</g>
<!-- UserModule -->
<g id="node16" class="node">
<title>UserModule</title>
<polygon fill="#8dd3c7" stroke="black" points="507.98,-274 504.98,-278 483.98,-278 480.98,-274 422.02,-274 422.02,-238 507.98,-238 507.98,-274"/>
<text text-anchor="middle" x="465" y="-251.8" font-family="Times,serif" font-size="14.00">UserModule</text>
</g>
<!-- PrismaModule&#45;&gt;UserModule -->
<g id="edge39" class="edge">
<title>PrismaModule&#45;&gt;UserModule</title>
<path fill="none" stroke="black" d="M450.67,-198.01C450.67,-198.01 450.67,-227.85 450.67,-227.85"/>
<polygon fill="black" stroke="black" points="447.17,-227.85 450.67,-237.85 454.17,-227.85 447.17,-227.85"/>
</g>
<!-- PrismaModule&#45;&gt;AppModule -->
<g id="edge13" class="edge">
<title>PrismaModule&#45;&gt;AppModule</title>
<path fill="none" stroke="black" d="M511.05,-198.11C511.05,-207.9 511.05,-218 511.05,-218 511.05,-218 1403.51,-218 1403.51,-218 1403.51,-218 1403.51,-303.94 1403.51,-303.94"/>
<polygon fill="black" stroke="black" points="1400.01,-303.94 1403.51,-313.94 1407.01,-303.94 1400.01,-303.94"/>
</g>
<!-- PrismaService  -->
<g id="node32" class="node">
<title>PrismaService </title>
<polygon fill="#fb8072" stroke="black" points="1587.36,-274 1486.64,-274 1486.64,-238 1587.36,-238 1587.36,-274"/>
<text text-anchor="middle" x="1537" y="-251.8" font-family="Times,serif" font-size="14.00">PrismaService </text>
</g>
<!-- PrismaModule&#45;&gt;PrismaService  -->
<g id="edge35" class="edge">
<title>PrismaModule&#45;&gt;PrismaService </title>
<path fill="none" stroke="black" stroke-dasharray="5,2" d="M514.1,-198.17C514.1,-202.05 514.1,-205 514.1,-205 514.1,-205 1520.27,-205 1520.27,-205 1520.27,-205 1520.27,-227.88 1520.27,-227.88"/>
<polygon fill="black" stroke="black" points="1516.77,-227.88 1520.27,-237.88 1523.77,-227.88 1516.77,-227.88"/>
</g>
<!-- ProfileModule -->
<g id="node14" class="node">
<title>ProfileModule</title>
<polygon fill="#8dd3c7" stroke="black" points="1244.65,-198 1241.65,-202 1220.65,-202 1217.65,-198 1147.35,-198 1147.35,-162 1244.65,-162 1244.65,-198"/>
<text text-anchor="middle" x="1196" y="-175.8" font-family="Times,serif" font-size="14.00">ProfileModule</text>
</g>
<!-- ProfileModule&#45;&gt;AppModule -->
<g id="edge14" class="edge">
<title>ProfileModule&#45;&gt;AppModule</title>
<path fill="none" stroke="black" d="M1196,-198.11C1196,-236.59 1196,-323 1196,-323 1196,-323 1361.16,-323 1361.16,-323"/>
<polygon fill="black" stroke="black" points="1361.16,-326.5 1371.16,-323 1361.16,-319.5 1361.16,-326.5"/>
</g>
<!-- RedisModule -->
<g id="node15" class="node">
<title>RedisModule</title>
<polygon fill="#8dd3c7" stroke="black" points="1354.94,-198 1351.94,-202 1330.94,-202 1327.94,-198 1263.06,-198 1263.06,-162 1354.94,-162 1354.94,-198"/>
<text text-anchor="middle" x="1309" y="-175.8" font-family="Times,serif" font-size="14.00">RedisModule</text>
</g>
<!-- RedisModule&#45;&gt;AppModule -->
<g id="edge15" class="edge">
<title>RedisModule&#45;&gt;AppModule</title>
<path fill="none" stroke="black" d="M1354.87,-186C1387.31,-186 1425.06,-186 1425.06,-186 1425.06,-186 1425.06,-303.8 1425.06,-303.8"/>
<polygon fill="black" stroke="black" points="1421.56,-303.8 1425.06,-313.8 1428.56,-303.8 1421.56,-303.8"/>
</g>
<!-- UserModule&#45;&gt;AuthModule -->
<g id="edge23" class="edge">
<title>UserModule&#45;&gt;AuthModule</title>
<path fill="none" stroke="black" d="M479.33,-274.2C479.33,-298.36 479.33,-338 479.33,-338 479.33,-338 611,-338 611,-338"/>
<polygon fill="black" stroke="black" points="611,-341.5 621,-338 611,-334.5 611,-341.5"/>
</g>
<!-- UserModule&#45;&gt;AppModule -->
<g id="edge16" class="edge">
<title>UserModule&#45;&gt;AppModule</title>
<path fill="none" stroke="black" d="M450.67,-274.04C450.67,-286.56 450.67,-301 450.67,-301 450.67,-301 1381.95,-301 1381.95,-301 1381.95,-301 1381.95,-303.97 1381.95,-303.97"/>
<polygon fill="black" stroke="black" points="1378.45,-303.97 1381.95,-313.97 1385.45,-303.97 1378.45,-303.97"/>
</g>
<!-- JwtService  -->
<g id="node35" class="node">
<title>JwtService </title>
<polygon fill="#fb8072" stroke="black" points="350.42,-350 269.58,-350 269.58,-314 350.42,-314 350.42,-350"/>
<text text-anchor="middle" x="310" y="-327.8" font-family="Times,serif" font-size="14.00">JwtService </text>
</g>
<!-- UserModule&#45;&gt;JwtService  -->
<g id="edge40" class="edge">
<title>UserModule&#45;&gt;JwtService </title>
<path fill="none" stroke="black" stroke-dasharray="5,2" d="M421.64,-265C379.9,-265 323.06,-265 323.06,-265 323.06,-265 323.06,-303.69 323.06,-303.69"/>
<polygon fill="black" stroke="black" points="319.56,-303.69 323.06,-313.69 326.56,-303.69 319.56,-303.69"/>
</g>
<!-- UserService  -->
<g id="node36" class="node">
<title>UserService </title>
<polygon fill="#fb8072" stroke="black" points="251.9,-350 164.1,-350 164.1,-314 251.9,-314 251.9,-350"/>
<text text-anchor="middle" x="208" y="-327.8" font-family="Times,serif" font-size="14.00">UserService </text>
</g>
<!-- UserModule&#45;&gt;UserService  -->
<g id="edge41" class="edge">
<title>UserModule&#45;&gt;UserService </title>
<path fill="none" stroke="black" stroke-dasharray="5,2" d="M421.88,-256C351.35,-256 219.07,-256 219.07,-256 219.07,-256 219.07,-303.99 219.07,-303.99"/>
<polygon fill="black" stroke="black" points="215.57,-303.99 219.07,-313.99 222.57,-303.99 215.57,-303.99"/>
</g>
<!-- AppService -->
<g id="node18" class="node">
<title>AppService</title>
<ellipse fill="#fdb462" stroke="black" cx="1390" cy="-104" rx="56.74" ry="18"/>
<text text-anchor="middle" x="1390" y="-99.8" font-family="Times,serif" font-size="14.00">AppService</text>
</g>
<!-- AppService&#45;&gt;AppModule -->
<g id="edge17" class="edge">
<title>AppService&#45;&gt;AppModule</title>
<path fill="none" stroke="black" d="M1435.84,-114.69C1435.84,-114.69 1435.84,-303.86 1435.84,-303.86"/>
<polygon fill="black" stroke="black" points="1432.34,-303.86 1435.84,-313.86 1439.34,-303.86 1432.34,-303.86"/>
</g>
<!-- AuthService -->
<g id="node19" class="node">
<title>AuthService</title>
<ellipse fill="#fdb462" stroke="black" cx="901" cy="-104" rx="59.11" ry="18"/>
<text text-anchor="middle" x="901" y="-99.8" font-family="Times,serif" font-size="14.00">AuthService</text>
</g>
<!-- AuthService&#45;&gt;AuthModule -->
<g id="edge24" class="edge">
<title>AuthService&#45;&gt;AuthModule</title>
<path fill="none" stroke="black" d="M844.91,-110.14C844.91,-145.07 844.91,-317 844.91,-317 844.91,-317 718.55,-317 718.55,-317"/>
<polygon fill="black" stroke="black" points="718.55,-313.5 708.55,-317 718.55,-320.5 718.55,-313.5"/>
</g>
<!-- AuthService&#45;&gt;AppModule -->
<g id="edge18" class="edge">
<title>AuthService&#45;&gt;AppModule</title>
<path fill="none" stroke="black" d="M848.12,-112.33C848.12,-154.01 848.12,-338 848.12,-338 848.12,-338 1361,-338 1361,-338"/>
<polygon fill="black" stroke="black" points="1361,-341.5 1371,-338 1361,-334.5 1361,-341.5"/>
</g>
<!-- Kpx -->
<g id="node20" class="node">
<title>Kpx</title>
<ellipse fill="#fdb462" stroke="black" cx="1157" cy="-104" rx="27.83" ry="18"/>
<text text-anchor="middle" x="1157" y="-99.8" font-family="Times,serif" font-size="14.00">Kpx</text>
</g>
<!-- Kpx&#45;&gt;AppModule -->
<g id="edge19" class="edge">
<title>Kpx&#45;&gt;AppModule</title>
<path fill="none" stroke="black" d="M1138.41,-117.55C1138.41,-165.75 1138.41,-326 1138.41,-326 1138.41,-326 1361.3,-326 1361.3,-326"/>
<polygon fill="black" stroke="black" points="1361.3,-329.5 1371.3,-326 1361.3,-322.5 1361.3,-329.5"/>
</g>
<!-- KpxService -->
<g id="node21" class="node">
<title>KpxService</title>
<ellipse fill="#fdb462" stroke="black" cx="1259" cy="-104" rx="56.74" ry="18"/>
<text text-anchor="middle" x="1259" y="-99.8" font-family="Times,serif" font-size="14.00">KpxService</text>
</g>
<!-- KpxService&#45;&gt;AppModule -->
<g id="edge20" class="edge">
<title>KpxService&#45;&gt;AppModule</title>
<path fill="none" stroke="black" d="M1254.05,-122.04C1254.05,-173.96 1254.05,-320 1254.05,-320 1254.05,-320 1361.24,-320 1361.24,-320"/>
<polygon fill="black" stroke="black" points="1361.24,-323.5 1371.24,-320 1361.24,-316.5 1361.24,-323.5"/>
</g>
<!-- PrismaService -->
<g id="node22" class="node">
<title>PrismaService</title>
<ellipse fill="#fdb462" stroke="black" cx="1045" cy="-104" rx="66.63" ry="18"/>
<text text-anchor="middle" x="1045" y="-99.8" font-family="Times,serif" font-size="14.00">PrismaService</text>
</g>
<!-- PrismaService&#45;&gt;PrismaModule -->
<g id="edge36" class="edge">
<title>PrismaService&#45;&gt;PrismaModule</title>
<path fill="none" stroke="black" d="M981.73,-109.81C981.73,-116.91 981.73,-128 981.73,-128 981.73,-128 471,-128 471,-128 471,-128 471,-151.81 471,-151.81"/>
<polygon fill="black" stroke="black" points="467.5,-151.81 471,-161.81 474.5,-151.81 467.5,-151.81"/>
</g>
<!-- PrismaService&#45;&gt;UserModule -->
<g id="edge42" class="edge">
<title>PrismaService&#45;&gt;UserModule</title>
<path fill="none" stroke="black" d="M985.27,-112.32C985.27,-139.65 985.27,-225 985.27,-225 985.27,-225 479.33,-225 479.33,-225 479.33,-225 479.33,-227.97 479.33,-227.97"/>
<polygon fill="black" stroke="black" points="475.83,-227.97 479.33,-237.97 482.83,-227.97 475.83,-227.97"/>
</g>
<!-- PrismaService&#45;&gt;AppModule -->
<g id="edge21" class="edge">
<title>PrismaService&#45;&gt;AppModule</title>
<path fill="none" stroke="black" d="M988.81,-113.8C988.81,-157.44 988.81,-332 988.81,-332 988.81,-332 1361.17,-332 1361.17,-332"/>
<polygon fill="black" stroke="black" points="1361.17,-335.5 1371.17,-332 1361.17,-328.5 1361.17,-335.5"/>
</g>
<!-- JwtStrategy -->
<g id="node23" class="node">
<title>JwtStrategy</title>
<ellipse fill="#fdb462" stroke="black" cx="1684" cy="-256" rx="56.76" ry="18"/>
<text text-anchor="middle" x="1684" y="-251.8" font-family="Times,serif" font-size="14.00">JwtStrategy</text>
</g>
<!-- JwtStrategy&#45;&gt;AuthModule -->
<g id="edge25" class="edge">
<title>JwtStrategy&#45;&gt;AuthModule</title>
<path fill="none" stroke="black" d="M1684,-274.24C1684,-281.43 1684,-288 1684,-288 1684,-288 677.43,-288 677.43,-288 677.43,-288 677.43,-303.85 677.43,-303.85"/>
<polygon fill="black" stroke="black" points="673.93,-303.85 677.43,-313.85 680.93,-303.85 673.93,-303.85"/>
</g>
<!-- BidService -->
<g id="node24" class="node">
<title>BidService</title>
<ellipse fill="#fdb462" stroke="black" cx="2631" cy="-104" rx="53.89" ry="18"/>
<text text-anchor="middle" x="2631" y="-99.8" font-family="Times,serif" font-size="14.00">BidService</text>
</g>
<!-- BidService&#45;&gt;BidModule -->
<g id="edge26" class="edge">
<title>BidService&#45;&gt;BidModule</title>
<path fill="none" stroke="black" d="M2651.53,-120.87C2651.53,-120.87 2651.53,-151.85 2651.53,-151.85"/>
<polygon fill="black" stroke="black" points="2648.03,-151.85 2651.53,-161.85 2655.03,-151.85 2648.03,-151.85"/>
</g>
<!-- DashboardService -->
<g id="node25" class="node">
<title>DashboardService</title>
<ellipse fill="#fdb462" stroke="black" cx="268" cy="-180" rx="81.64" ry="18"/>
<text text-anchor="middle" x="268" y="-175.8" font-family="Times,serif" font-size="14.00">DashboardService</text>
</g>
<!-- DashboardService&#45;&gt;DashboardModule -->
<g id="edge28" class="edge">
<title>DashboardService&#45;&gt;DashboardModule</title>
<path fill="none" stroke="black" d="M296.3,-197.03C296.3,-212.19 296.3,-232 296.3,-232 296.3,-232 529.88,-232 529.88,-232 529.88,-232 529.88,-232.58 529.88,-232.58"/>
<polygon fill="black" stroke="black" points="526.38,-227.81 529.88,-237.81 533.38,-227.81 526.38,-227.81"/>
</g>
<!-- DrService -->
<g id="node26" class="node">
<title>DrService</title>
<ellipse fill="#fdb462" stroke="black" cx="1537" cy="-104" rx="50.36" ry="18"/>
<text text-anchor="middle" x="1537" y="-99.8" font-family="Times,serif" font-size="14.00">DrService</text>
</g>
<!-- DrService&#45;&gt;DrModule -->
<g id="edge29" class="edge">
<title>DrService&#45;&gt;DrModule</title>
<path fill="none" stroke="black" d="M1553.73,-121.1C1553.73,-127.84 1553.73,-134 1553.73,-134 1553.73,-134 575,-134 575,-134 575,-134 575,-151.82 575,-151.82"/>
<polygon fill="black" stroke="black" points="571.5,-151.82 575,-161.82 578.5,-151.82 571.5,-151.82"/>
</g>
<!-- HistoryService -->
<g id="node27" class="node">
<title>HistoryService</title>
<ellipse fill="#fdb462" stroke="black" cx="1696" cy="-104" rx="68.92" ry="18"/>
<text text-anchor="middle" x="1696" y="-99.8" font-family="Times,serif" font-size="14.00">HistoryService</text>
</g>
<!-- HistoryService&#45;&gt;HistoryModule -->
<g id="edge30" class="edge">
<title>HistoryService&#45;&gt;HistoryModule</title>
<path fill="none" stroke="black" d="M1684,-122C1684,-131 1684,-140 1684,-140 1684,-140 681,-140 681,-140 681,-140 681,-151.87 681,-151.87"/>
<polygon fill="black" stroke="black" points="677.5,-151.87 681,-161.87 684.5,-151.87 677.5,-151.87"/>
</g>
<!-- InquiryService -->
<g id="node28" class="node">
<title>InquiryService</title>
<ellipse fill="#fdb462" stroke="black" cx="2793" cy="-104" rx="68.34" ry="18"/>
<text text-anchor="middle" x="2793" y="-99.8" font-family="Times,serif" font-size="14.00">InquiryService</text>
</g>
<!-- InquiryService&#45;&gt;InquiryModule -->
<g id="edge31" class="edge">
<title>InquiryService&#45;&gt;InquiryModule</title>
<path fill="none" stroke="black" d="M2770.48,-121.25C2770.48,-121.25 2770.48,-151.76 2770.48,-151.76"/>
<polygon fill="black" stroke="black" points="2766.98,-151.76 2770.48,-161.76 2773.98,-151.76 2766.98,-151.76"/>
</g>
<!-- ManagementService -->
<g id="node29" class="node">
<title>ManagementService</title>
<ellipse fill="#fdb462" stroke="black" cx="2991" cy="-104" rx="90.31" ry="18"/>
<text text-anchor="middle" x="2991" y="-99.8" font-family="Times,serif" font-size="14.00">ManagementService</text>
</g>
<!-- ManagementService&#45;&gt;ManagementModule -->
<g id="edge32" class="edge">
<title>ManagementService&#45;&gt;ManagementModule</title>
<path fill="none" stroke="black" d="M2933.96,-118.3C2933.96,-118.3 2933.96,-151.73 2933.96,-151.73"/>
<polygon fill="black" stroke="black" points="2930.46,-151.73 2933.96,-161.73 2937.46,-151.73 2930.46,-151.73"/>
</g>
<!-- MonitoringService -->
<g id="node30" class="node">
<title>MonitoringService</title>
<ellipse fill="#fdb462" stroke="black" cx="1889" cy="-104" rx="83.97" ry="18"/>
<text text-anchor="middle" x="1889" y="-99.8" font-family="Times,serif" font-size="14.00">MonitoringService</text>
</g>
<!-- MonitoringService&#45;&gt;MonitoringModule -->
<g id="edge33" class="edge">
<title>MonitoringService&#45;&gt;MonitoringModule</title>
<path fill="none" stroke="black" d="M1889,-122.1C1889,-133.09 1889,-145 1889,-145 1889,-145 967.48,-145 967.48,-145 967.48,-145 967.48,-151.68 967.48,-151.68"/>
<polygon fill="black" stroke="black" points="963.98,-151.68 967.48,-161.68 970.98,-151.68 963.98,-151.68"/>
</g>
<!-- PowerplannerService -->
<g id="node31" class="node">
<title>PowerplannerService</title>
<ellipse fill="#fdb462" stroke="black" cx="2107" cy="-104" rx="93.74" ry="18"/>
<text text-anchor="middle" x="2107" y="-99.8" font-family="Times,serif" font-size="14.00">PowerplannerService</text>
</g>
<!-- PowerplannerService&#45;&gt;PowerplannerModule -->
<g id="edge34" class="edge">
<title>PowerplannerService&#45;&gt;PowerplannerModule</title>
<path fill="none" stroke="black" d="M2107,-122.04C2107,-135.29 2107,-151 2107,-151 2107,-151 1120.57,-151 1120.57,-151 1120.57,-151 1120.57,-152.08 1120.57,-152.08"/>
<polygon fill="black" stroke="black" points="1117.07,-151.8 1120.57,-161.8 1124.07,-151.8 1117.07,-151.8"/>
</g>
<!-- ProfileService -->
<g id="node33" class="node">
<title>ProfileService</title>
<ellipse fill="#fdb462" stroke="black" cx="2307" cy="-104" rx="66.05" ry="18"/>
<text text-anchor="middle" x="2307" y="-99.8" font-family="Times,serif" font-size="14.00">ProfileService</text>
</g>
<!-- ProfileService&#45;&gt;ProfileModule -->
<g id="edge37" class="edge">
<title>ProfileService&#45;&gt;ProfileModule</title>
<path fill="none" stroke="black" d="M2307,-122.24C2307,-137.57 2307,-157 2307,-157 2307,-157 1223.6,-157 1223.6,-157 1223.6,-157 1223.6,-157.49 1223.6,-157.49"/>
<polygon fill="black" stroke="black" points="1220.1,-151.88 1223.6,-161.88 1227.1,-151.88 1220.1,-151.88"/>
</g>
<!-- RedisService -->
<g id="node34" class="node">
<title>RedisService</title>
<ellipse fill="#fdb462" stroke="black" cx="2475" cy="-104" rx="61.97" ry="18"/>
<text text-anchor="middle" x="2475" y="-99.8" font-family="Times,serif" font-size="14.00">RedisService</text>
</g>
<!-- RedisService&#45;&gt;RedisModule -->
<g id="edge38" class="edge">
<title>RedisService&#45;&gt;RedisModule</title>
<path fill="none" stroke="black" d="M2436.6,-118.17C2436.6,-138.62 2436.6,-174 2436.6,-174 2436.6,-174 1364.95,-174 1364.95,-174"/>
<polygon fill="black" stroke="black" points="1364.95,-170.5 1354.95,-174 1364.95,-177.5 1364.95,-170.5"/>
</g>
<!-- UserService -->
<g id="node37" class="node">
<title>UserService</title>
<ellipse fill="#fdb462" stroke="black" cx="82" cy="-332" rx="58.44" ry="18"/>
<text text-anchor="middle" x="82" y="-327.8" font-family="Times,serif" font-size="14.00">UserService</text>
</g>
<!-- UserService&#45;&gt;UserModule -->
<g id="edge43" class="edge">
<title>UserService&#45;&gt;UserModule</title>
<path fill="none" stroke="black" d="M82,-313.97C82,-289.02 82,-247 82,-247 82,-247 411.81,-247 411.81,-247"/>
<polygon fill="black" stroke="black" points="411.81,-250.5 421.81,-247 411.81,-243.5 411.81,-250.5"/>
</g>
</g>
</svg>
