<?xml version="1.0" encoding="UTF-8" standalone="no"?>
<!DOCTYPE svg PUBLIC "-//W3C//DTD SVG 1.1//EN"
 "http://www.w3.org/Graphics/SVG/1.1/DTD/svg11.dtd">
<!-- Generated by graphviz version 2.47.0 (20210316.0004)
 -->
<!-- Title: dependencies Pages: 1 -->
<svg width="1880pt" height="211pt"
 viewBox="0.00 0.00 1880.00 211.00" xmlns="http://www.w3.org/2000/svg" xmlns:xlink="http://www.w3.org/1999/xlink">
<g id="graph0" class="graph" transform="scale(1 1) rotate(0) translate(4 207)">
<title>dependencies</title>
<polygon fill="white" stroke="transparent" points="-4,4 -4,-207 1876,-207 1876,4 -4,4"/>
<text text-anchor="start" x="915.01" y="-42.4" font-family="Times-12" font-weight="bold" font-size="14.00">Legend</text>
<polygon fill="#ffffb3" stroke="transparent" points="702,-10 702,-30 722,-30 722,-10 702,-10"/>
<text text-anchor="start" x="725.63" y="-15.4" font-family="Times-12" font-size="14.00"> &#160;Declarations</text>
<polygon fill="#8dd3c7" stroke="transparent" points="815,-10 815,-30 835,-30 835,-10 815,-10"/>
<text text-anchor="start" x="838.73" y="-15.4" font-family="Times-12" font-size="14.00"> &#160;Module</text>
<polygon fill="#80b1d3" stroke="transparent" points="901,-10 901,-30 921,-30 921,-10 901,-10"/>
<text text-anchor="start" x="924.78" y="-15.4" font-family="Times-12" font-size="14.00"> &#160;Bootstrap</text>
<polygon fill="#fdb462" stroke="transparent" points="998,-10 998,-30 1018,-30 1018,-10 998,-10"/>
<text text-anchor="start" x="1021.67" y="-15.4" font-family="Times-12" font-size="14.00"> &#160;Providers</text>
<polygon fill="#fb8072" stroke="transparent" points="1094,-10 1094,-30 1114,-30 1114,-10 1094,-10"/>
<text text-anchor="start" x="1117.73" y="-15.4" font-family="Times-12" font-size="14.00"> &#160;Exports</text>
<g id="clust1" class="cluster">
<title>cluster_AppModule</title>
<polygon fill="none" stroke="black" stroke-dasharray="1,5" points="8,-70 8,-195 1864,-195 1864,-70 8,-70"/>
</g>
<g id="clust6" class="cluster">
<title>cluster_AppModule_providers</title>
<polygon fill="none" stroke="black" points="1438,-78 1438,-130 1856,-130 1856,-78 1438,-78"/>
</g>
<g id="clust3" class="cluster">
<title>cluster_AppModule_imports</title>
<polygon fill="none" stroke="black" points="16,-78 16,-130 1430,-130 1430,-78 16,-78"/>
</g>
<!-- AdminModule -->
<g id="node1" class="node">
<title>AdminModule</title>
<polygon fill="#8dd3c7" stroke="black" points="1422.44,-122 1419.44,-126 1398.44,-126 1395.44,-122 1323.56,-122 1323.56,-86 1422.44,-86 1422.44,-122"/>
<text text-anchor="middle" x="1373" y="-99.8" font-family="Times,serif" font-size="14.00">AdminModule</text>
</g>
<!-- AppModule -->
<g id="node13" class="node">
<title>AppModule</title>
<polygon fill="#8dd3c7" stroke="black" points="960.66,-187 957.66,-191 936.66,-191 933.66,-187 877.34,-187 877.34,-151 960.66,-151 960.66,-187"/>
<text text-anchor="middle" x="919" y="-164.8" font-family="Times,serif" font-size="14.00">AppModule</text>
</g>
<!-- AdminModule&#45;&gt;AppModule -->
<g id="edge1" class="edge">
<title>AdminModule&#45;&gt;AppModule</title>
<path fill="none" stroke="black" d="M1373,-122.11C1373,-141.34 1373,-169 1373,-169 1373,-169 970.9,-169 970.9,-169"/>
<polygon fill="black" stroke="black" points="970.9,-165.5 960.9,-169 970.9,-172.5 970.9,-165.5"/>
</g>
<!-- AuthModule -->
<g id="node2" class="node">
<title>AuthModule</title>
<polygon fill="#8dd3c7" stroke="black" points="1305.55,-122 1302.55,-126 1281.55,-126 1278.55,-122 1218.45,-122 1218.45,-86 1305.55,-86 1305.55,-122"/>
<text text-anchor="middle" x="1262" y="-99.8" font-family="Times,serif" font-size="14.00">AuthModule</text>
</g>
<!-- AuthModule&#45;&gt;AppModule -->
<g id="edge2" class="edge">
<title>AuthModule&#45;&gt;AppModule</title>
<path fill="none" stroke="black" d="M1262,-122.3C1262,-140.27 1262,-165 1262,-165 1262,-165 970.72,-165 970.72,-165"/>
<polygon fill="black" stroke="black" points="970.72,-161.5 960.72,-165 970.72,-168.5 970.72,-161.5"/>
</g>
<!-- DashboardModule -->
<g id="node3" class="node">
<title>DashboardModule</title>
<polygon fill="#8dd3c7" stroke="black" points="1200.19,-122 1197.19,-126 1176.19,-126 1173.19,-122 1079.81,-122 1079.81,-86 1200.19,-86 1200.19,-122"/>
<text text-anchor="middle" x="1140" y="-99.8" font-family="Times,serif" font-size="14.00">DashboardModule</text>
</g>
<!-- DashboardModule&#45;&gt;AppModule -->
<g id="edge3" class="edge">
<title>DashboardModule&#45;&gt;AppModule</title>
<path fill="none" stroke="black" d="M1140,-122.03C1140,-138.4 1140,-160 1140,-160 1140,-160 970.83,-160 970.83,-160"/>
<polygon fill="black" stroke="black" points="970.83,-156.5 960.83,-160 970.83,-163.5 970.83,-156.5"/>
</g>
<!-- DrModule -->
<g id="node4" class="node">
<title>DrModule</title>
<polygon fill="#8dd3c7" stroke="black" points="1062.32,-122 1059.32,-126 1038.32,-126 1035.32,-122 987.68,-122 987.68,-86 1062.32,-86 1062.32,-122"/>
<text text-anchor="middle" x="1025" y="-99.8" font-family="Times,serif" font-size="14.00">DrModule</text>
</g>
<!-- DrModule&#45;&gt;AppModule -->
<g id="edge4" class="edge">
<title>DrModule&#45;&gt;AppModule</title>
<path fill="none" stroke="black" d="M1025,-122.19C1025,-137.18 1025,-156 1025,-156 1025,-156 970.89,-156 970.89,-156"/>
<polygon fill="black" stroke="black" points="970.89,-152.5 960.89,-156 970.89,-159.5 970.89,-152.5"/>
</g>
<!-- HistoryModule -->
<g id="node5" class="node">
<title>HistoryModule</title>
<polygon fill="#8dd3c7" stroke="black" points="969.54,-122 966.54,-126 945.54,-126 942.54,-122 868.46,-122 868.46,-86 969.54,-86 969.54,-122"/>
<text text-anchor="middle" x="919" y="-99.8" font-family="Times,serif" font-size="14.00">HistoryModule</text>
</g>
<!-- HistoryModule&#45;&gt;AppModule -->
<g id="edge5" class="edge">
<title>HistoryModule&#45;&gt;AppModule</title>
<path fill="none" stroke="black" d="M919,-122.11C919,-122.11 919,-140.99 919,-140.99"/>
<polygon fill="black" stroke="black" points="915.5,-140.99 919,-150.99 922.5,-140.99 915.5,-140.99"/>
</g>
<!-- KpxModule -->
<g id="node6" class="node">
<title>KpxModule</title>
<polygon fill="#8dd3c7" stroke="black" points="849.66,-122 846.66,-126 825.66,-126 822.66,-122 766.34,-122 766.34,-86 849.66,-86 849.66,-122"/>
<text text-anchor="middle" x="808" y="-99.8" font-family="Times,serif" font-size="14.00">KpxModule</text>
</g>
<!-- KpxModule&#45;&gt;AppModule -->
<g id="edge6" class="edge">
<title>KpxModule&#45;&gt;AppModule</title>
<path fill="none" stroke="black" d="M808,-122.19C808,-137.18 808,-156 808,-156 808,-156 867.04,-156 867.04,-156"/>
<polygon fill="black" stroke="black" points="867.04,-159.5 877.04,-156 867.04,-152.5 867.04,-159.5"/>
</g>
<!-- MonitoringModule -->
<g id="node7" class="node">
<title>MonitoringModule</title>
<polygon fill="#8dd3c7" stroke="black" points="748.83,-122 745.83,-126 724.83,-126 721.83,-122 625.17,-122 625.17,-86 748.83,-86 748.83,-122"/>
<text text-anchor="middle" x="687" y="-99.8" font-family="Times,serif" font-size="14.00">MonitoringModule</text>
</g>
<!-- MonitoringModule&#45;&gt;AppModule -->
<g id="edge7" class="edge">
<title>MonitoringModule&#45;&gt;AppModule</title>
<path fill="none" stroke="black" d="M687,-122.03C687,-138.4 687,-160 687,-160 687,-160 867.26,-160 867.26,-160"/>
<polygon fill="black" stroke="black" points="867.26,-163.5 877.26,-160 867.26,-156.5 867.26,-163.5"/>
</g>
<!-- PowerplannerModule -->
<g id="node8" class="node">
<title>PowerplannerModule</title>
<polygon fill="#8dd3c7" stroke="black" points="607.79,-122 604.79,-126 583.79,-126 580.79,-122 470.21,-122 470.21,-86 607.79,-86 607.79,-122"/>
<text text-anchor="middle" x="539" y="-99.8" font-family="Times,serif" font-size="14.00">PowerplannerModule</text>
</g>
<!-- PowerplannerModule&#45;&gt;AppModule -->
<g id="edge8" class="edge">
<title>PowerplannerModule&#45;&gt;AppModule</title>
<path fill="none" stroke="black" d="M539,-122.3C539,-140.27 539,-165 539,-165 539,-165 867.25,-165 867.25,-165"/>
<polygon fill="black" stroke="black" points="867.25,-168.5 877.25,-165 867.25,-161.5 867.25,-168.5"/>
</g>
<!-- PrismaModule -->
<g id="node9" class="node">
<title>PrismaModule</title>
<polygon fill="#8dd3c7" stroke="black" points="452.43,-122 449.43,-126 428.43,-126 425.43,-122 353.57,-122 353.57,-86 452.43,-86 452.43,-122"/>
<text text-anchor="middle" x="403" y="-99.8" font-family="Times,serif" font-size="14.00">PrismaModule</text>
</g>
<!-- PrismaModule&#45;&gt;AppModule -->
<g id="edge9" class="edge">
<title>PrismaModule&#45;&gt;AppModule</title>
<path fill="none" stroke="black" d="M403,-122.11C403,-141.34 403,-169 403,-169 403,-169 867.21,-169 867.21,-169"/>
<polygon fill="black" stroke="black" points="867.21,-172.5 877.21,-169 867.21,-165.5 867.21,-172.5"/>
</g>
<!-- ProfileModule -->
<g id="node10" class="node">
<title>ProfileModule</title>
<polygon fill="#8dd3c7" stroke="black" points="335.65,-122 332.65,-126 311.65,-126 308.65,-122 238.35,-122 238.35,-86 335.65,-86 335.65,-122"/>
<text text-anchor="middle" x="287" y="-99.8" font-family="Times,serif" font-size="14.00">ProfileModule</text>
</g>
<!-- ProfileModule&#45;&gt;AppModule -->
<g id="edge10" class="edge">
<title>ProfileModule&#45;&gt;AppModule</title>
<path fill="none" stroke="black" d="M287,-122.03C287,-142.77 287,-174 287,-174 287,-174 867.04,-174 867.04,-174"/>
<polygon fill="black" stroke="black" points="867.04,-177.5 877.04,-174 867.04,-170.5 867.04,-177.5"/>
</g>
<!-- RedisModule -->
<g id="node11" class="node">
<title>RedisModule</title>
<polygon fill="#8dd3c7" stroke="black" points="219.94,-122 216.94,-126 195.94,-126 192.94,-122 128.06,-122 128.06,-86 219.94,-86 219.94,-122"/>
<text text-anchor="middle" x="174" y="-99.8" font-family="Times,serif" font-size="14.00">RedisModule</text>
</g>
<!-- RedisModule&#45;&gt;AppModule -->
<g id="edge11" class="edge">
<title>RedisModule&#45;&gt;AppModule</title>
<path fill="none" stroke="black" d="M174,-122.29C174,-144.21 174,-178 174,-178 174,-178 867.08,-178 867.08,-178"/>
<polygon fill="black" stroke="black" points="867.08,-181.5 877.08,-178 867.08,-174.5 867.08,-181.5"/>
</g>
<!-- UserModule -->
<g id="node12" class="node">
<title>UserModule</title>
<polygon fill="#8dd3c7" stroke="black" points="109.98,-122 106.98,-126 85.98,-126 82.98,-122 24.02,-122 24.02,-86 109.98,-86 109.98,-122"/>
<text text-anchor="middle" x="67" y="-99.8" font-family="Times,serif" font-size="14.00">UserModule</text>
</g>
<!-- UserModule&#45;&gt;AppModule -->
<g id="edge12" class="edge">
<title>UserModule&#45;&gt;AppModule</title>
<path fill="none" stroke="black" d="M67,-122.32C67,-145.66 67,-183 67,-183 67,-183 867.33,-183 867.33,-183"/>
<polygon fill="black" stroke="black" points="867.33,-186.5 877.33,-183 867.33,-179.5 867.33,-186.5"/>
</g>
<!-- AppService -->
<g id="node14" class="node">
<title>AppService</title>
<ellipse fill="#fdb462" stroke="black" cx="1791" cy="-104" rx="56.74" ry="18"/>
<text text-anchor="middle" x="1791" y="-99.8" font-family="Times,serif" font-size="14.00">AppService</text>
</g>
<!-- AppService&#45;&gt;AppModule -->
<g id="edge13" class="edge">
<title>AppService&#45;&gt;AppModule</title>
<path fill="none" stroke="black" d="M1791,-122.32C1791,-145.66 1791,-183 1791,-183 1791,-183 970.76,-183 970.76,-183"/>
<polygon fill="black" stroke="black" points="970.76,-179.5 960.76,-183 970.76,-186.5 970.76,-179.5"/>
</g>
<!-- AuthService -->
<g id="node15" class="node">
<title>AuthService</title>
<ellipse fill="#fdb462" stroke="black" cx="1657" cy="-104" rx="59.11" ry="18"/>
<text text-anchor="middle" x="1657" y="-99.8" font-family="Times,serif" font-size="14.00">AuthService</text>
</g>
<!-- AuthService&#45;&gt;AppModule -->
<g id="edge14" class="edge">
<title>AuthService&#45;&gt;AppModule</title>
<path fill="none" stroke="black" d="M1657,-122.29C1657,-144.21 1657,-178 1657,-178 1657,-178 970.79,-178 970.79,-178"/>
<polygon fill="black" stroke="black" points="970.79,-174.5 960.79,-178 970.79,-181.5 970.79,-174.5"/>
</g>
<!-- PrismaService -->
<g id="node16" class="node">
<title>PrismaService</title>
<ellipse fill="#fdb462" stroke="black" cx="1513" cy="-104" rx="66.63" ry="18"/>
<text text-anchor="middle" x="1513" y="-99.8" font-family="Times,serif" font-size="14.00">PrismaService</text>
</g>
<!-- PrismaService&#45;&gt;AppModule -->
<g id="edge15" class="edge">
<title>PrismaService&#45;&gt;AppModule</title>
<path fill="none" stroke="black" d="M1513,-122.03C1513,-142.77 1513,-174 1513,-174 1513,-174 970.77,-174 970.77,-174"/>
<polygon fill="black" stroke="black" points="970.77,-170.5 960.77,-174 970.77,-177.5 970.77,-170.5"/>
</g>
</g>
</svg>
