<?xml version="1.0" encoding="UTF-8" standalone="no"?>
<!DOCTYPE svg PUBLIC "-//W3C//DTD SVG 1.1//EN"
 "http://www.w3.org/Graphics/SVG/1.1/DTD/svg11.dtd">
<!-- Generated by graphviz version 2.47.0 (20210316.0004)
 -->
<!-- Title: dependencies Pages: 1 -->
<svg width="2084pt" height="211pt"
 viewBox="0.00 0.00 2084.00 211.00" xmlns="http://www.w3.org/2000/svg" xmlns:xlink="http://www.w3.org/1999/xlink">
<g id="graph0" class="graph" transform="scale(1 1) rotate(0) translate(4 207)">
<title>dependencies</title>
<polygon fill="white" stroke="transparent" points="-4,4 -4,-207 2080,-207 2080,4 -4,4"/>
<text text-anchor="start" x="1017.01" y="-42.4" font-family="Times-12" font-weight="bold" font-size="14.00">Legend</text>
<polygon fill="#ffffb3" stroke="transparent" points="804,-10 804,-30 824,-30 824,-10 804,-10"/>
<text text-anchor="start" x="827.63" y="-15.4" font-family="Times-12" font-size="14.00"> &#160;Declarations</text>
<polygon fill="#8dd3c7" stroke="transparent" points="917,-10 917,-30 937,-30 937,-10 917,-10"/>
<text text-anchor="start" x="940.73" y="-15.4" font-family="Times-12" font-size="14.00"> &#160;Module</text>
<polygon fill="#80b1d3" stroke="transparent" points="1003,-10 1003,-30 1023,-30 1023,-10 1003,-10"/>
<text text-anchor="start" x="1026.78" y="-15.4" font-family="Times-12" font-size="14.00"> &#160;Bootstrap</text>
<polygon fill="#fdb462" stroke="transparent" points="1100,-10 1100,-30 1120,-30 1120,-10 1100,-10"/>
<text text-anchor="start" x="1123.67" y="-15.4" font-family="Times-12" font-size="14.00"> &#160;Providers</text>
<polygon fill="#fb8072" stroke="transparent" points="1196,-10 1196,-30 1216,-30 1216,-10 1196,-10"/>
<text text-anchor="start" x="1219.73" y="-15.4" font-family="Times-12" font-size="14.00"> &#160;Exports</text>
<g id="clust1" class="cluster">
<title>cluster_AppModule</title>
<polygon fill="none" stroke="black" stroke-dasharray="1,5" points="8,-70 8,-195 2068,-195 2068,-70 8,-70"/>
</g>
<g id="clust3" class="cluster">
<title>cluster_AppModule_imports</title>
<polygon fill="none" stroke="black" points="646,-78 646,-130 2060,-130 2060,-78 646,-78"/>
</g>
<g id="clust6" class="cluster">
<title>cluster_AppModule_providers</title>
<polygon fill="none" stroke="black" points="16,-78 16,-130 638,-130 638,-78 16,-78"/>
</g>
<!-- AdminModule -->
<g id="node1" class="node">
<title>AdminModule</title>
<polygon fill="#8dd3c7" stroke="black" points="2052.44,-122 2049.44,-126 2028.44,-126 2025.44,-122 1953.56,-122 1953.56,-86 2052.44,-86 2052.44,-122"/>
<text text-anchor="middle" x="2003" y="-99.8" font-family="Times,serif" font-size="14.00">AdminModule</text>
</g>
<!-- AppModule -->
<g id="node13" class="node">
<title>AppModule</title>
<polygon fill="#8dd3c7" stroke="black" points="1074.66,-187 1071.66,-191 1050.66,-191 1047.66,-187 991.34,-187 991.34,-151 1074.66,-151 1074.66,-187"/>
<text text-anchor="middle" x="1033" y="-164.8" font-family="Times,serif" font-size="14.00">AppModule</text>
</g>
<!-- AdminModule&#45;&gt;AppModule -->
<g id="edge1" class="edge">
<title>AdminModule&#45;&gt;AppModule</title>
<path fill="none" stroke="black" d="M2003,-122.32C2003,-145.66 2003,-183 2003,-183 2003,-183 1084.68,-183 1084.68,-183"/>
<polygon fill="black" stroke="black" points="1084.68,-179.5 1074.68,-183 1084.68,-186.5 1084.68,-179.5"/>
</g>
<!-- AuthModule -->
<g id="node2" class="node">
<title>AuthModule</title>
<polygon fill="#8dd3c7" stroke="black" points="1935.55,-122 1932.55,-126 1911.55,-126 1908.55,-122 1848.45,-122 1848.45,-86 1935.55,-86 1935.55,-122"/>
<text text-anchor="middle" x="1892" y="-99.8" font-family="Times,serif" font-size="14.00">AuthModule</text>
</g>
<!-- AuthModule&#45;&gt;AppModule -->
<g id="edge2" class="edge">
<title>AuthModule&#45;&gt;AppModule</title>
<path fill="none" stroke="black" d="M1892,-122.16C1892,-144.35 1892,-179 1892,-179 1892,-179 1084.72,-179 1084.72,-179"/>
<polygon fill="black" stroke="black" points="1084.72,-175.5 1074.72,-179 1084.72,-182.5 1084.72,-175.5"/>
</g>
<!-- DashboardModule -->
<g id="node3" class="node">
<title>DashboardModule</title>
<polygon fill="#8dd3c7" stroke="black" points="1830.19,-122 1827.19,-126 1806.19,-126 1803.19,-122 1709.81,-122 1709.81,-86 1830.19,-86 1830.19,-122"/>
<text text-anchor="middle" x="1770" y="-99.8" font-family="Times,serif" font-size="14.00">DashboardModule</text>
</g>
<!-- DashboardModule&#45;&gt;AppModule -->
<g id="edge3" class="edge">
<title>DashboardModule&#45;&gt;AppModule</title>
<path fill="none" stroke="black" d="M1770,-122.28C1770,-143.32 1770,-175 1770,-175 1770,-175 1084.74,-175 1084.74,-175"/>
<polygon fill="black" stroke="black" points="1084.74,-171.5 1074.74,-175 1084.74,-178.5 1084.74,-171.5"/>
</g>
<!-- DrModule -->
<g id="node4" class="node">
<title>DrModule</title>
<polygon fill="#8dd3c7" stroke="black" points="1692.32,-122 1689.32,-126 1668.32,-126 1665.32,-122 1617.68,-122 1617.68,-86 1692.32,-86 1692.32,-122"/>
<text text-anchor="middle" x="1655" y="-99.8" font-family="Times,serif" font-size="14.00">DrModule</text>
</g>
<!-- DrModule&#45;&gt;AppModule -->
<g id="edge4" class="edge">
<title>DrModule&#45;&gt;AppModule</title>
<path fill="none" stroke="black" d="M1655,-122.31C1655,-142.15 1655,-171 1655,-171 1655,-171 1084.78,-171 1084.78,-171"/>
<polygon fill="black" stroke="black" points="1084.78,-167.5 1074.78,-171 1084.78,-174.5 1084.78,-167.5"/>
</g>
<!-- HistoryModule -->
<g id="node5" class="node">
<title>HistoryModule</title>
<polygon fill="#8dd3c7" stroke="black" points="1599.54,-122 1596.54,-126 1575.54,-126 1572.54,-122 1498.46,-122 1498.46,-86 1599.54,-86 1599.54,-122"/>
<text text-anchor="middle" x="1549" y="-99.8" font-family="Times,serif" font-size="14.00">HistoryModule</text>
</g>
<!-- HistoryModule&#45;&gt;AppModule -->
<g id="edge5" class="edge">
<title>HistoryModule&#45;&gt;AppModule</title>
<path fill="none" stroke="black" d="M1549,-122.22C1549,-140.83 1549,-167 1549,-167 1549,-167 1084.79,-167 1084.79,-167"/>
<polygon fill="black" stroke="black" points="1084.79,-163.5 1074.79,-167 1084.79,-170.5 1084.79,-163.5"/>
</g>
<!-- KpxModule -->
<g id="node6" class="node">
<title>KpxModule</title>
<polygon fill="#8dd3c7" stroke="black" points="1479.66,-122 1476.66,-126 1455.66,-126 1452.66,-122 1396.34,-122 1396.34,-86 1479.66,-86 1479.66,-122"/>
<text text-anchor="middle" x="1438" y="-99.8" font-family="Times,serif" font-size="14.00">KpxModule</text>
</g>
<!-- KpxModule&#45;&gt;AppModule -->
<g id="edge6" class="edge">
<title>KpxModule&#45;&gt;AppModule</title>
<path fill="none" stroke="black" d="M1438,-122.02C1438,-139.37 1438,-163 1438,-163 1438,-163 1084.82,-163 1084.82,-163"/>
<polygon fill="black" stroke="black" points="1084.82,-159.5 1074.82,-163 1084.82,-166.5 1084.82,-159.5"/>
</g>
<!-- MonitoringModule -->
<g id="node7" class="node">
<title>MonitoringModule</title>
<polygon fill="#8dd3c7" stroke="black" points="1378.83,-122 1375.83,-126 1354.83,-126 1351.83,-122 1255.17,-122 1255.17,-86 1378.83,-86 1378.83,-122"/>
<text text-anchor="middle" x="1317" y="-99.8" font-family="Times,serif" font-size="14.00">MonitoringModule</text>
</g>
<!-- MonitoringModule&#45;&gt;AppModule -->
<g id="edge7" class="edge">
<title>MonitoringModule&#45;&gt;AppModule</title>
<path fill="none" stroke="black" d="M1317,-122.01C1317,-138.05 1317,-159 1317,-159 1317,-159 1084.91,-159 1084.91,-159"/>
<polygon fill="black" stroke="black" points="1084.91,-155.5 1074.91,-159 1084.91,-162.5 1084.91,-155.5"/>
</g>
<!-- PowerplannerModule -->
<g id="node8" class="node">
<title>PowerplannerModule</title>
<polygon fill="#8dd3c7" stroke="black" points="1237.79,-122 1234.79,-126 1213.79,-126 1210.79,-122 1100.21,-122 1100.21,-86 1237.79,-86 1237.79,-122"/>
<text text-anchor="middle" x="1169" y="-99.8" font-family="Times,serif" font-size="14.00">PowerplannerModule</text>
</g>
<!-- PowerplannerModule&#45;&gt;AppModule -->
<g id="edge8" class="edge">
<title>PowerplannerModule&#45;&gt;AppModule</title>
<path fill="none" stroke="black" d="M1169,-122.12C1169,-136.78 1169,-155 1169,-155 1169,-155 1084.91,-155 1084.91,-155"/>
<polygon fill="black" stroke="black" points="1084.91,-151.5 1074.91,-155 1084.91,-158.5 1084.91,-151.5"/>
</g>
<!-- PrismaModule -->
<g id="node9" class="node">
<title>PrismaModule</title>
<polygon fill="#8dd3c7" stroke="black" points="1082.43,-122 1079.43,-126 1058.43,-126 1055.43,-122 983.57,-122 983.57,-86 1082.43,-86 1082.43,-122"/>
<text text-anchor="middle" x="1033" y="-99.8" font-family="Times,serif" font-size="14.00">PrismaModule</text>
</g>
<!-- PrismaModule&#45;&gt;AppModule -->
<g id="edge9" class="edge">
<title>PrismaModule&#45;&gt;AppModule</title>
<path fill="none" stroke="black" d="M1033,-122.11C1033,-122.11 1033,-140.99 1033,-140.99"/>
<polygon fill="black" stroke="black" points="1029.5,-140.99 1033,-150.99 1036.5,-140.99 1029.5,-140.99"/>
</g>
<!-- ProfileModule -->
<g id="node10" class="node">
<title>ProfileModule</title>
<polygon fill="#8dd3c7" stroke="black" points="965.65,-122 962.65,-126 941.65,-126 938.65,-122 868.35,-122 868.35,-86 965.65,-86 965.65,-122"/>
<text text-anchor="middle" x="917" y="-99.8" font-family="Times,serif" font-size="14.00">ProfileModule</text>
</g>
<!-- ProfileModule&#45;&gt;AppModule -->
<g id="edge10" class="edge">
<title>ProfileModule&#45;&gt;AppModule</title>
<path fill="none" stroke="black" d="M917,-122.12C917,-136.78 917,-155 917,-155 917,-155 981.12,-155 981.12,-155"/>
<polygon fill="black" stroke="black" points="981.12,-158.5 991.12,-155 981.12,-151.5 981.12,-158.5"/>
</g>
<!-- RedisModule -->
<g id="node11" class="node">
<title>RedisModule</title>
<polygon fill="#8dd3c7" stroke="black" points="849.94,-122 846.94,-126 825.94,-126 822.94,-122 758.06,-122 758.06,-86 849.94,-86 849.94,-122"/>
<text text-anchor="middle" x="804" y="-99.8" font-family="Times,serif" font-size="14.00">RedisModule</text>
</g>
<!-- RedisModule&#45;&gt;AppModule -->
<g id="edge11" class="edge">
<title>RedisModule&#45;&gt;AppModule</title>
<path fill="none" stroke="black" d="M804,-122.01C804,-138.05 804,-159 804,-159 804,-159 981.26,-159 981.26,-159"/>
<polygon fill="black" stroke="black" points="981.26,-162.5 991.26,-159 981.26,-155.5 981.26,-162.5"/>
</g>
<!-- UserModule -->
<g id="node12" class="node">
<title>UserModule</title>
<polygon fill="#8dd3c7" stroke="black" points="739.98,-122 736.98,-126 715.98,-126 712.98,-122 654.02,-122 654.02,-86 739.98,-86 739.98,-122"/>
<text text-anchor="middle" x="697" y="-99.8" font-family="Times,serif" font-size="14.00">UserModule</text>
</g>
<!-- UserModule&#45;&gt;AppModule -->
<g id="edge12" class="edge">
<title>UserModule&#45;&gt;AppModule</title>
<path fill="none" stroke="black" d="M697,-122.02C697,-139.37 697,-163 697,-163 697,-163 981.12,-163 981.12,-163"/>
<polygon fill="black" stroke="black" points="981.12,-166.5 991.12,-163 981.12,-159.5 981.12,-166.5"/>
</g>
<!-- AppService -->
<g id="node14" class="node">
<title>AppService</title>
<ellipse fill="#fdb462" stroke="black" cx="573" cy="-104" rx="56.74" ry="18"/>
<text text-anchor="middle" x="573" y="-99.8" font-family="Times,serif" font-size="14.00">AppService</text>
</g>
<!-- AppService&#45;&gt;AppModule -->
<g id="edge13" class="edge">
<title>AppService&#45;&gt;AppModule</title>
<path fill="none" stroke="black" d="M573,-122.22C573,-140.83 573,-167 573,-167 573,-167 980.96,-167 980.96,-167"/>
<polygon fill="black" stroke="black" points="980.96,-170.5 990.96,-167 980.96,-163.5 980.96,-170.5"/>
</g>
<!-- AuthService -->
<g id="node15" class="node">
<title>AuthService</title>
<ellipse fill="#fdb462" stroke="black" cx="439" cy="-104" rx="59.11" ry="18"/>
<text text-anchor="middle" x="439" y="-99.8" font-family="Times,serif" font-size="14.00">AuthService</text>
</g>
<!-- AuthService&#45;&gt;AppModule -->
<g id="edge14" class="edge">
<title>AuthService&#45;&gt;AppModule</title>
<path fill="none" stroke="black" d="M439,-122.31C439,-142.15 439,-171 439,-171 439,-171 981.23,-171 981.23,-171"/>
<polygon fill="black" stroke="black" points="981.23,-174.5 991.23,-171 981.23,-167.5 981.23,-174.5"/>
</g>
<!-- Kpx -->
<g id="node16" class="node">
<title>Kpx</title>
<ellipse fill="#fdb462" stroke="black" cx="334" cy="-104" rx="27.83" ry="18"/>
<text text-anchor="middle" x="334" y="-99.8" font-family="Times,serif" font-size="14.00">Kpx</text>
</g>
<!-- Kpx&#45;&gt;AppModule -->
<g id="edge15" class="edge">
<title>Kpx&#45;&gt;AppModule</title>
<path fill="none" stroke="black" d="M334,-122.28C334,-143.32 334,-175 334,-175 334,-175 981.11,-175 981.11,-175"/>
<polygon fill="black" stroke="black" points="981.11,-178.5 991.11,-175 981.11,-171.5 981.11,-178.5"/>
</g>
<!-- KpxService -->
<g id="node17" class="node">
<title>KpxService</title>
<ellipse fill="#fdb462" stroke="black" cx="232" cy="-104" rx="56.74" ry="18"/>
<text text-anchor="middle" x="232" y="-99.8" font-family="Times,serif" font-size="14.00">KpxService</text>
</g>
<!-- KpxService&#45;&gt;AppModule -->
<g id="edge16" class="edge">
<title>KpxService&#45;&gt;AppModule</title>
<path fill="none" stroke="black" d="M232,-122.16C232,-144.35 232,-179 232,-179 232,-179 981.34,-179 981.34,-179"/>
<polygon fill="black" stroke="black" points="981.34,-182.5 991.34,-179 981.34,-175.5 981.34,-182.5"/>
</g>
<!-- PrismaService -->
<g id="node18" class="node">
<title>PrismaService</title>
<ellipse fill="#fdb462" stroke="black" cx="91" cy="-104" rx="66.63" ry="18"/>
<text text-anchor="middle" x="91" y="-99.8" font-family="Times,serif" font-size="14.00">PrismaService</text>
</g>
<!-- PrismaService&#45;&gt;AppModule -->
<g id="edge17" class="edge">
<title>PrismaService&#45;&gt;AppModule</title>
<path fill="none" stroke="black" d="M91,-122.32C91,-145.66 91,-183 91,-183 91,-183 981.31,-183 981.31,-183"/>
<polygon fill="black" stroke="black" points="981.31,-186.5 991.31,-183 981.31,-179.5 981.31,-186.5"/>
</g>
</g>
</svg>
