<?xml version="1.0" encoding="UTF-8" standalone="no"?>
<!DOCTYPE svg PUBLIC "-//W3C//DTD SVG 1.1//EN"
 "http://www.w3.org/Graphics/SVG/1.1/DTD/svg11.dtd">
<!-- Generated by graphviz version 2.47.0 (20210316.0004)
 -->
<!-- Title: dependencies Pages: 1 -->
<svg width="504pt" height="211pt"
 viewBox="0.00 0.00 504.00 211.00" xmlns="http://www.w3.org/2000/svg" xmlns:xlink="http://www.w3.org/1999/xlink">
<g id="graph0" class="graph" transform="scale(1 1) rotate(0) translate(4 207)">
<title>dependencies</title>
<polygon fill="white" stroke="transparent" points="-4,4 -4,-207 500,-207 500,4 -4,4"/>
<text text-anchor="start" x="227.01" y="-42.4" font-family="Times-12" font-weight="bold" font-size="14.00">Legend</text>
<polygon fill="#ffffb3" stroke="transparent" points="14,-10 14,-30 34,-30 34,-10 14,-10"/>
<text text-anchor="start" x="37.63" y="-15.4" font-family="Times-12" font-size="14.00"> &#160;Declarations</text>
<polygon fill="#8dd3c7" stroke="transparent" points="127,-10 127,-30 147,-30 147,-10 127,-10"/>
<text text-anchor="start" x="150.73" y="-15.4" font-family="Times-12" font-size="14.00"> &#160;Module</text>
<polygon fill="#80b1d3" stroke="transparent" points="213,-10 213,-30 233,-30 233,-10 213,-10"/>
<text text-anchor="start" x="236.78" y="-15.4" font-family="Times-12" font-size="14.00"> &#160;Bootstrap</text>
<polygon fill="#fdb462" stroke="transparent" points="310,-10 310,-30 330,-30 330,-10 310,-10"/>
<text text-anchor="start" x="333.67" y="-15.4" font-family="Times-12" font-size="14.00"> &#160;Providers</text>
<polygon fill="#fb8072" stroke="transparent" points="406,-10 406,-30 426,-30 426,-10 406,-10"/>
<text text-anchor="start" x="429.73" y="-15.4" font-family="Times-12" font-size="14.00"> &#160;Exports</text>
<g id="clust1" class="cluster">
<title>cluster_ArticleModule</title>
<polygon fill="none" stroke="black" stroke-dasharray="1,5" points="100,-70 100,-195 396,-195 396,-70 100,-70"/>
</g>
<g id="clust3" class="cluster">
<title>cluster_ArticleModule_imports</title>
<polygon fill="none" stroke="black" points="274,-78 274,-130 388,-130 388,-78 274,-78"/>
</g>
<g id="clust6" class="cluster">
<title>cluster_ArticleModule_providers</title>
<polygon fill="none" stroke="black" points="108,-78 108,-130 266,-130 266,-78 108,-78"/>
</g>
<!-- PrismaModule -->
<g id="node1" class="node">
<title>PrismaModule</title>
<polygon fill="#8dd3c7" stroke="black" points="380.43,-122 377.43,-126 356.43,-126 353.43,-122 281.57,-122 281.57,-86 380.43,-86 380.43,-122"/>
<text text-anchor="middle" x="331" y="-99.8" font-family="Times,serif" font-size="14.00">PrismaModule</text>
</g>
<!-- ArticleModule -->
<g id="node2" class="node">
<title>ArticleModule</title>
<polygon fill="#8dd3c7" stroke="black" points="308.42,-187 305.42,-191 284.42,-191 281.42,-187 209.58,-187 209.58,-151 308.42,-151 308.42,-187"/>
<text text-anchor="middle" x="259" y="-164.8" font-family="Times,serif" font-size="14.00">ArticleModule</text>
</g>
<!-- PrismaModule&#45;&gt;ArticleModule -->
<g id="edge1" class="edge">
<title>PrismaModule&#45;&gt;ArticleModule</title>
<path fill="none" stroke="black" d="M295,-122.11C295,-122.11 295,-140.99 295,-140.99"/>
<polygon fill="black" stroke="black" points="291.5,-140.99 295,-150.99 298.5,-140.99 291.5,-140.99"/>
</g>
<!-- ArticlesService -->
<g id="node3" class="node">
<title>ArticlesService</title>
<ellipse fill="#fdb462" stroke="black" cx="187" cy="-104" rx="70.62" ry="18"/>
<text text-anchor="middle" x="187" y="-99.8" font-family="Times,serif" font-size="14.00">ArticlesService</text>
</g>
<!-- ArticlesService&#45;&gt;ArticleModule -->
<g id="edge2" class="edge">
<title>ArticlesService&#45;&gt;ArticleModule</title>
<path fill="none" stroke="black" d="M233.67,-117.78C233.67,-117.78 233.67,-140.55 233.67,-140.55"/>
<polygon fill="black" stroke="black" points="230.17,-140.55 233.67,-150.55 237.17,-140.55 230.17,-140.55"/>
</g>
</g>
</svg>
