<?xml version="1.0" encoding="UTF-8" standalone="no"?>
<!DOCTYPE svg PUBLIC "-//W3C//DTD SVG 1.1//EN"
 "http://www.w3.org/Graphics/SVG/1.1/DTD/svg11.dtd">
<!-- Generated by graphviz version 2.47.0 (20210316.0004)
 -->
<!-- Title: dependencies Pages: 1 -->
<svg width="504pt" height="211pt"
 viewBox="0.00 0.00 504.00 211.00" xmlns="http://www.w3.org/2000/svg" xmlns:xlink="http://www.w3.org/1999/xlink">
<g id="graph0" class="graph" transform="scale(1 1) rotate(0) translate(4 207)">
<title>dependencies</title>
<polygon fill="white" stroke="transparent" points="-4,4 -4,-207 500,-207 500,4 -4,4"/>
<text text-anchor="start" x="227.01" y="-42.4" font-family="Times-12" font-weight="bold" font-size="14.00">Legend</text>
<polygon fill="#ffffb3" stroke="transparent" points="14,-10 14,-30 34,-30 34,-10 14,-10"/>
<text text-anchor="start" x="37.63" y="-15.4" font-family="Times-12" font-size="14.00"> &#160;Declarations</text>
<polygon fill="#8dd3c7" stroke="transparent" points="127,-10 127,-30 147,-30 147,-10 127,-10"/>
<text text-anchor="start" x="150.73" y="-15.4" font-family="Times-12" font-size="14.00"> &#160;Module</text>
<polygon fill="#80b1d3" stroke="transparent" points="213,-10 213,-30 233,-30 233,-10 213,-10"/>
<text text-anchor="start" x="236.78" y="-15.4" font-family="Times-12" font-size="14.00"> &#160;Bootstrap</text>
<polygon fill="#fdb462" stroke="transparent" points="310,-10 310,-30 330,-30 330,-10 310,-10"/>
<text text-anchor="start" x="333.67" y="-15.4" font-family="Times-12" font-size="14.00"> &#160;Providers</text>
<polygon fill="#fb8072" stroke="transparent" points="406,-10 406,-30 426,-30 426,-10 406,-10"/>
<text text-anchor="start" x="429.73" y="-15.4" font-family="Times-12" font-size="14.00"> &#160;Exports</text>
<g id="clust1" class="cluster">
<title>cluster_GeneratePdfModule</title>
<polygon fill="none" stroke="black" stroke-dasharray="1,5" points="68,-70 68,-195 428,-195 428,-70 68,-70"/>
</g>
<g id="clust6" class="cluster">
<title>cluster_GeneratePdfModule_providers</title>
<polygon fill="none" stroke="black" points="76,-78 76,-130 420,-130 420,-78 76,-78"/>
</g>
<!-- GeneratePdfService -->
<g id="node1" class="node">
<title>GeneratePdfService</title>
<ellipse fill="#fdb462" stroke="black" cx="324" cy="-104" rx="88.5" ry="18"/>
<text text-anchor="middle" x="324" y="-99.8" font-family="Times,serif" font-size="14.00">GeneratePdfService</text>
</g>
<!-- GeneratePdfModule -->
<g id="node3" class="node">
<title>GeneratePdfModule</title>
<polygon fill="#8dd3c7" stroke="black" points="301.51,-187 298.51,-191 277.51,-191 274.51,-187 172.49,-187 172.49,-151 301.51,-151 301.51,-187"/>
<text text-anchor="middle" x="237" y="-164.8" font-family="Times,serif" font-size="14.00">GeneratePdfModule</text>
</g>
<!-- GeneratePdfService&#45;&gt;GeneratePdfModule -->
<g id="edge1" class="edge">
<title>GeneratePdfService&#45;&gt;GeneratePdfModule</title>
<path fill="none" stroke="black" d="M268.75,-118.1C268.75,-118.1 268.75,-140.72 268.75,-140.72"/>
<polygon fill="black" stroke="black" points="265.25,-140.72 268.75,-150.72 272.25,-140.72 265.25,-140.72"/>
</g>
<!-- PrismaService -->
<g id="node2" class="node">
<title>PrismaService</title>
<ellipse fill="#fdb462" stroke="black" cx="151" cy="-104" rx="66.63" ry="18"/>
<text text-anchor="middle" x="151" y="-99.8" font-family="Times,serif" font-size="14.00">PrismaService</text>
</g>
<!-- PrismaService&#45;&gt;GeneratePdfModule -->
<g id="edge2" class="edge">
<title>PrismaService&#45;&gt;GeneratePdfModule</title>
<path fill="none" stroke="black" d="M195.03,-117.78C195.03,-117.78 195.03,-140.55 195.03,-140.55"/>
<polygon fill="black" stroke="black" points="191.53,-140.55 195.03,-150.55 198.53,-140.55 191.53,-140.55"/>
</g>
</g>
</svg>
