<?xml version="1.0" encoding="UTF-8" standalone="no"?>
<!DOCTYPE svg PUBLIC "-//W3C//DTD SVG 1.1//EN"
 "http://www.w3.org/Graphics/SVG/1.1/DTD/svg11.dtd">
<!-- Generated by graphviz version 2.47.0 (20210316.0004)
 -->
<!-- Title: dependencies Pages: 1 -->
<svg width="563pt" height="211pt"
 viewBox="0.00 0.00 563.00 211.00" xmlns="http://www.w3.org/2000/svg" xmlns:xlink="http://www.w3.org/1999/xlink">
<g id="graph0" class="graph" transform="scale(1 1) rotate(0) translate(4 207)">
<title>dependencies</title>
<polygon fill="white" stroke="transparent" points="-4,4 -4,-207 559,-207 559,4 -4,4"/>
<text text-anchor="start" x="256.51" y="-42.4" font-family="Times-12" font-weight="bold" font-size="14.00">Legend</text>
<polygon fill="#ffffb3" stroke="transparent" points="43.5,-10 43.5,-30 63.5,-30 63.5,-10 43.5,-10"/>
<text text-anchor="start" x="67.13" y="-15.4" font-family="Times-12" font-size="14.00"> &#160;Declarations</text>
<polygon fill="#8dd3c7" stroke="transparent" points="156.5,-10 156.5,-30 176.5,-30 176.5,-10 156.5,-10"/>
<text text-anchor="start" x="180.23" y="-15.4" font-family="Times-12" font-size="14.00"> &#160;Module</text>
<polygon fill="#80b1d3" stroke="transparent" points="242.5,-10 242.5,-30 262.5,-30 262.5,-10 242.5,-10"/>
<text text-anchor="start" x="266.28" y="-15.4" font-family="Times-12" font-size="14.00"> &#160;Bootstrap</text>
<polygon fill="#fdb462" stroke="transparent" points="339.5,-10 339.5,-30 359.5,-30 359.5,-10 339.5,-10"/>
<text text-anchor="start" x="363.17" y="-15.4" font-family="Times-12" font-size="14.00"> &#160;Providers</text>
<polygon fill="#fb8072" stroke="transparent" points="435.5,-10 435.5,-30 455.5,-30 455.5,-10 435.5,-10"/>
<text text-anchor="start" x="459.23" y="-15.4" font-family="Times-12" font-size="14.00"> &#160;Exports</text>
<g id="clust1" class="cluster">
<title>cluster_AdminModule</title>
<polygon fill="none" stroke="black" stroke-dasharray="1,5" points="8,-70 8,-195 547,-195 547,-70 8,-70"/>
</g>
<g id="clust3" class="cluster">
<title>cluster_AdminModule_imports</title>
<polygon fill="none" stroke="black" points="174,-78 174,-130 539,-130 539,-78 174,-78"/>
</g>
<g id="clust6" class="cluster">
<title>cluster_AdminModule_providers</title>
<polygon fill="none" stroke="black" points="16,-78 16,-130 166,-130 166,-78 16,-78"/>
</g>
<!-- BidModule -->
<g id="node1" class="node">
<title>BidModule</title>
<polygon fill="#8dd3c7" stroke="black" points="530.78,-122 527.78,-126 506.78,-126 503.78,-122 451.22,-122 451.22,-86 530.78,-86 530.78,-122"/>
<text text-anchor="middle" x="491" y="-99.8" font-family="Times,serif" font-size="14.00">BidModule</text>
</g>
<!-- AdminModule -->
<g id="node4" class="node">
<title>AdminModule</title>
<polygon fill="#8dd3c7" stroke="black" points="364.44,-187 361.44,-191 340.44,-191 337.44,-187 265.56,-187 265.56,-151 364.44,-151 364.44,-187"/>
<text text-anchor="middle" x="315" y="-164.8" font-family="Times,serif" font-size="14.00">AdminModule</text>
</g>
<!-- BidModule&#45;&gt;AdminModule -->
<g id="edge1" class="edge">
<title>BidModule&#45;&gt;AdminModule</title>
<path fill="none" stroke="black" d="M491,-122.11C491,-141.34 491,-169 491,-169 491,-169 374.49,-169 374.49,-169"/>
<polygon fill="black" stroke="black" points="374.49,-165.5 364.49,-169 374.49,-172.5 374.49,-165.5"/>
</g>
<!-- InquiryModule -->
<g id="node2" class="node">
<title>InquiryModule</title>
<polygon fill="#8dd3c7" stroke="black" points="433.26,-122 430.26,-126 409.26,-126 406.26,-122 332.74,-122 332.74,-86 433.26,-86 433.26,-122"/>
<text text-anchor="middle" x="383" y="-99.8" font-family="Times,serif" font-size="14.00">InquiryModule</text>
</g>
<!-- InquiryModule&#45;&gt;AdminModule -->
<g id="edge2" class="edge">
<title>InquiryModule&#45;&gt;AdminModule</title>
<path fill="none" stroke="black" d="M348.42,-122.11C348.42,-122.11 348.42,-140.99 348.42,-140.99"/>
<polygon fill="black" stroke="black" points="344.92,-140.99 348.42,-150.99 351.92,-140.99 344.92,-140.99"/>
</g>
<!-- ManagementModule -->
<g id="node3" class="node">
<title>ManagementModule</title>
<polygon fill="#8dd3c7" stroke="black" points="314.13,-122 311.13,-126 290.13,-126 287.13,-122 181.87,-122 181.87,-86 314.13,-86 314.13,-122"/>
<text text-anchor="middle" x="248" y="-99.8" font-family="Times,serif" font-size="14.00">ManagementModule</text>
</g>
<!-- ManagementModule&#45;&gt;AdminModule -->
<g id="edge3" class="edge">
<title>ManagementModule&#45;&gt;AdminModule</title>
<path fill="none" stroke="black" d="M290.05,-122.11C290.05,-122.11 290.05,-140.99 290.05,-140.99"/>
<polygon fill="black" stroke="black" points="286.55,-140.99 290.05,-150.99 293.55,-140.99 286.55,-140.99"/>
</g>
<!-- AdminService -->
<g id="node5" class="node">
<title>AdminService</title>
<ellipse fill="#fdb462" stroke="black" cx="91" cy="-104" rx="66.63" ry="18"/>
<text text-anchor="middle" x="91" y="-99.8" font-family="Times,serif" font-size="14.00">AdminService</text>
</g>
<!-- AdminService&#45;&gt;AdminModule -->
<g id="edge4" class="edge">
<title>AdminService&#45;&gt;AdminModule</title>
<path fill="none" stroke="black" d="M91,-122.11C91,-141.34 91,-169 91,-169 91,-169 255.56,-169 255.56,-169"/>
<polygon fill="black" stroke="black" points="255.56,-172.5 265.56,-169 255.56,-165.5 255.56,-172.5"/>
</g>
</g>
</svg>
